<svg width="30" height="30" viewBox="0 0 30 30" fill="none" xmlns="http://www.w3.org/2000/svg">
<path d="M15 21.875C17.9125 21.875 20.375 20.05 21.3875 17.5H8.6125C9.6125 20.05 12.0875 21.875 15 21.875ZM10.625 13.75C11.1223 13.75 11.5992 13.5525 11.9508 13.2008C12.3025 12.8492 12.5 12.3723 12.5 11.875C12.5 11.3777 12.3025 10.9008 11.9508 10.5492C11.5992 10.1975 11.1223 10 10.625 10C10.1277 10 9.65081 10.1975 9.29917 10.5492C8.94754 10.9008 8.75 11.3777 8.75 11.875C8.75 12.3723 8.94754 12.8492 9.29917 13.2008C9.65081 13.5525 10.1277 13.75 10.625 13.75ZM19.375 13.75C19.8723 13.75 20.3492 13.5525 20.7008 13.2008C21.0525 12.8492 21.25 12.3723 21.25 11.875C21.25 11.3777 21.0525 10.9008 20.7008 10.5492C20.3492 10.1975 19.8723 10 19.375 10C18.8777 10 18.4008 10.1975 18.0492 10.5492C17.6975 10.9008 17.5 11.3777 17.5 11.875C17.5 12.3723 17.6975 12.8492 18.0492 13.2008C18.4008 13.5525 18.8777 13.75 19.375 13.75ZM15 25C12.3478 25 9.8043 23.9464 7.92893 22.0711C6.05357 20.1957 5 17.6522 5 15C5 12.3478 6.05357 9.8043 7.92893 7.92893C9.8043 6.05357 12.3478 5 15 5C17.6522 5 20.1957 6.05357 22.0711 7.92893C23.9464 9.8043 25 12.3478 25 15C25 17.6522 23.9464 20.1957 22.0711 22.0711C20.1957 23.9464 17.6522 25 15 25ZM15 2.5C8.0875 2.5 2.5 8.125 2.5 15C2.5 18.3152 3.81696 21.4946 6.16117 23.8388C7.3219 24.9996 8.69989 25.9203 10.2165 26.5485C11.733 27.1767 13.3585 27.5 15 27.5C18.3152 27.5 21.4946 26.183 23.8388 23.8388C26.183 21.4946 27.5 18.3152 27.5 15C27.5 13.3585 27.1767 11.733 26.5485 10.2165C25.9203 8.69989 24.9996 7.3219 23.8388 6.16117C22.6781 5.00043 21.3001 4.07969 19.7835 3.45151C18.267 2.82332 16.6415 2.5 15 2.5Z" fill="black"/>
</svg>
