<svg width="30" height="30" viewBox="0 0 30 30" fill="none" xmlns="http://www.w3.org/2000/svg">
<path d="M22.5 19.6875C22.5 21.8542 21.7396 23.6979 20.2187 25.2188C18.6979 26.7396 16.8542 27.5 14.6875 27.5C12.5208 27.5 10.6771 26.7396 9.15625 25.2188C7.63542 23.6979 6.875 21.8542 6.875 19.6875V8.125C6.875 6.5625 7.42208 5.23458 8.51625 4.14125C9.61042 3.04792 10.9383 2.50083 12.5 2.5C14.0617 2.49917 15.39 3.04625 16.485 4.14125C17.58 5.23625 18.1267 6.56417 18.125 8.125V19.0625C18.125 20.0208 17.7917 20.8333 17.125 21.5C16.4583 22.1667 15.6458 22.5 14.6875 22.5C13.7292 22.5 12.9167 22.1667 12.25 21.5C11.5833 20.8333 11.25 20.0208 11.25 19.0625V7.5H13.75V19.0625C13.75 19.3333 13.8388 19.5575 14.0163 19.735C14.1938 19.9125 14.4175 20.0008 14.6875 20C14.9575 19.9992 15.1817 19.9104 15.36 19.7338C15.5383 19.5571 15.6267 19.3333 15.625 19.0625V8.125C15.6042 7.25 15.2971 6.51042 14.7037 5.90625C14.1104 5.30208 13.3758 5 12.5 5C11.6242 5 10.8846 5.30208 10.2813 5.90625C9.67792 6.51042 9.37583 7.25 9.375 8.125V19.6875C9.35417 21.1667 9.86458 22.4221 10.9063 23.4538C11.9479 24.4854 13.2083 25.0008 14.6875 25C16.1458 25 17.3854 24.4846 18.4062 23.4538C19.4271 22.4229 19.9583 21.1675 20 19.6875V7.5H22.5V19.6875Z" fill="black"/>
</svg>
